<?xml version="1.0" encoding="utf-8"?>
<!-- Generator: Adobe Illustrator 27.2.0, SVG Export Plug-In . SVG Version: 6.00 Build 0)  -->
<svg version="1.1" id="Layer_1" xmlns="http://www.w3.org/2000/svg" xmlns:xlink="http://www.w3.org/1999/xlink" x="0px" y="0px"
	 viewBox="0 0 324 58" style="enable-background:new 0 0 324 58;" xml:space="preserve">
<style type="text/css">
	.st0{fill:#1C73AD;}
	.st1{fill:#80BC00;}
	.st2{fill:#F29500;}
	.st3{fill:#3AC7E4;}
	.st4{fill:#474C55;}
	.st5{fill:#636569;}
</style>
<g>
	<g>
		<path class="st0" d="M177.9160004,18.8300991c0.9989929-1.0049,2.6171875-0.9980984,3.6210938-0.0029984l0,0
			c1,0.9990997,1,2.6230984,0.0028992,3.6259995l-15.2333984,15.2324009c-0.996994,1.0009995-2.625,0.9990997-3.6278992-0.002903
			l0,0c-0.9940948-0.9979973-0.9960938-2.6200981,0.0039062-3.6229973L177.9160004,18.8300991z"/>
		<path class="st1" d="M157.5780945,39.1660004c0.9981079-0.9951019,2.6172028-0.9930992,3.6143036-0.0009995l0,0
			c1.003891,0.9981003,1.0067902,2.6269989,0.0096893,3.6279984l-2.5575867,2.5536995
			c-0.9990082,0.9980011-2.6259003,0.9980011-3.6240082-0.0048981l0,0c-0.9940948-0.9941025-1.0048981-2.6161995,0-3.6240005
			L157.5780945,39.1660004z"/>
		<path class="st2" d="M185.5722961,11.1688995c1.0018921-0.9989996,2.6190948-0.9920998,3.6210938,0l0,0
			c0.9990082,1,1,2.6299009,0.0009003,3.6280003l-2.6161957,2.6161995c-0.9989929,1-2.6239929,0.9961014-3.6260071-0.0058994l0,0
			c-0.996994-0.9941006-0.996994-2.6181002,0.0049133-3.6210995L185.5722961,11.1688995z"/>
	</g>
	<g>
		<path class="st0" d="M171.7451019,35.8866997c0.4403992-1.3466988,1.8759918-2.089798,3.2304993-1.6533012
			c1.3427887,0.4385033,2.0858917,1.8857002,1.6454926,3.2294998c-0.4375,1.3446999-1.8769989,2.0850029-3.2294922,1.6484032
			C172.0458984,38.6758003,171.3096008,37.2363014,171.7451019,35.8866997z"/>
		<g>
			<path class="st3" d="M167.6737976,46.8008003c1.0019989-0.9981003,1-2.625,0-3.6240005l0,0
				c-0.996109-1-2.618103-1-3.6191101,0.0028992l-2.9794922,2.9785004c-0.9960938,1.0009995-1,2.6231003-0.0010071,3.6201019l0,0
				c0.9981079,0.997097,2.625,1.0029984,3.6231079,0L167.6737976,46.8008003z"/>
			<path class="st1" d="M170.3456879,44.1269989c1.0078125-0.9960976,1.0059052-2.622097,0-3.6259995l0,0
				c-0.9960938-0.9971008-2.6132965-0.9941978-3.6181946,0.0039024l-2.1981964,2.2001991
				c-0.9971008,1.0018997-1.0010071,2.6200981-0.0039062,3.6210976l0,0c1.0010071,0.9980011,2.625,1.0039024,3.6260071,0.002903
				L170.3456879,44.1269989z"/>
			<path class="st1" d="M186.4296875,28.0468998c-1.0028992,0.9980011-2.625,0.9980011-3.6210938,0l0,0
				c-1.0059052-1-1.0048981-2.6220989,0-3.6220989l7.2138977-7.2129002c0.9990082-0.9980011,2.6141968-0.9971008,3.6170959,0l0,0
				c1,0.9989986,1.0049133,2.6239986,0.0020142,3.6278992L186.4296875,28.0468998z"/>
			<path class="st2" d="M181.5761871,32.8993988c-1.0058899,1.002903-2.625,1.0009995-3.6230927-0.0028992l0,0
				c-1.0028992-0.9960995-1.0028992-2.6161995,0.0039062-3.6142998l4.3593903-4.3680992
				c1.0059052-0.9971008,2.621109-0.9971008,3.6201019-0.0030003l0,0c1.0059052,1,1.0059052,2.6220989,0.0010071,3.6240997
				L181.5761871,32.8993988z"/>
		</g>
	</g>
	<g>
		<path class="st3" d="M162.5850067,6.3046899c-1.0010071-0.9941397-2.6221161-0.9960999-3.621109,0.0009699l-5.2402954,5.2451406
			c0,0,0,0,0,0.0018997l-4.9248047,4.9248009c-1.0039062,0.9990997-0.996109,2.6220989,0,3.6201992
			c0.9960938,1.0039005,2.6132965,1.0009003,3.6201019,0l5.2422028-5.2461004
			c0.0048981-0.0038996,0.0087891-0.0098,0.0185852-0.0165997l4.9023132-4.9072704
			C163.5800934,8.92871,163.5839996,7.3095698,162.5850067,6.3046899z"/>
		<path class="st2" d="M162.1454926,10.3682003c-1.0018921,0.9969997-2.6161957,1.0038996-3.6221008,0.0018997l0,0
			c-1-1.0048704-0.9980011-2.6201,0-3.6210799l1.8106079-1.8144503c1.0067902-0.9970698,2.6221008-1.0009799,3.6221008,0l0,0
			c1.0039062,1.0039101,0.9959869,2.6210899-0.0040131,3.6220698L162.1454926,10.3682003z"/>
	</g>
	<g>
		<path class="st0" d="M173.1826019,19.9160004c-0.4365082,1.3437996-1.8799133,2.0811005-3.2285004,1.6444988
			c-1.3457031-0.4286995-2.0820007-1.8768997-1.6523132-3.2255001c0.4403992-1.3408985,1.8877106-2.0859985,3.2324066-1.6484985
			C172.8798981,17.1229992,173.6151886,18.5625,173.1826019,19.9160004z"/>
		<path class="st3" d="M166.8760071,26.6327991c0.9960938-1.0018997,0.9960938-2.6201-0.0020142-3.6210995l0,0
			c-1.0057983-1.0009995-2.6201019-1.0039005-3.621994,0l-6.3653107,6.3623009
			c-0.9989929,0.9960995-0.9960938,2.6142998,0,3.6181984l0,0c1.0049133,1,2.6231079,0.9980011,3.6201019,0L166.8760071,26.6327991z
			"/>
		<path class="st2" d="M155.4756012,38.0264015c0.9950867-0.9981003,1-2.6211014,0-3.6221008l0,0
			c-0.9990082-0.9990005-2.625-0.9990005-3.6221008,0.0048981l-1.3291016,1.3232002
			c-0.9980011,1.0009995-0.9980011,2.625,0,3.6211014l0,0c1.0058899,1.0028992,2.6230927,1.0028992,3.6210938,0
			L155.4756012,38.0264015z"/>
		<path class="st1" d="M178.164093,15.3330002c-0.9960938,1.0039005-2.6230927,1.0039005-3.6192017,0.0058994l0,0
			c-0.9989929-1.0009995-0.9989929-2.6220999,0-3.6191998l2.3583984-2.3603201c0.996109-1.0009794,2.621109-1.0009794,3.6201019,0
			l0,0c1,0.9980202,1,2.6181202-0.0018921,3.6191206L178.164093,15.3330002z"/>
		<path class="st3" d="M180.9971008,12.5059004c-0.9981079,0.9960995-2.6210938,0.9960995-3.6192017,0l0,0
			c-0.9990082-1.0020008-1.0009003-2.6182003,0-3.62113l2.1542969-2.1582103c0.9990997-1,2.6240997-0.9990201,3.6210938,0.0019598
			l0,0c1,0.9980402,1,2.6181598,0,3.6220803L180.9971008,12.5059004z"/>
	</g>
	<g>
		<path class="st3" d="M170.9179993,12.085c0.9990082-0.9990997,0.9990082-2.6221104,0.0009003-3.6191797l0,0
			c-1-1.0019503-2.625-1.0048804-3.6240082-0.0058603L152.5673981,23.1924
			c-0.9990082,0.9960995-0.9971008,2.6161995,0.0018921,3.6210995l0,0c0.9981079,1.0010014,2.6231079,0.9990005,3.621109-0.0030003
			L170.9179993,12.085z"/>
		<path class="st1" d="M170.4032898,12.6035004c-1,0.9980993-2.6239929,0.9980993-3.621994,0.0009995l0,0
			c-1-1.0029001-1-2.6240301-0.0019989-3.6230497l4.9394989-4.9502001c1.0068054-0.99512,2.6259003-0.9960899,3.6327972,0.0019498
			l0,0c0.9980011,1.0029302,0.9980011,2.6240301,0,3.6240301L170.4032898,12.6035004z"/>
		<path class="st2" d="M151.6396027,31.3612995c-0.9980011,1.0039005-2.625,1.0010014-3.6210022,0l0,0
			c-0.9990997-0.9969997-1-2.6190987,0-3.6219997l4.9442902-4.9433994c1.0010071-0.9980011,2.621109-0.9980011,3.6240082,0l0,0
			c0.9981079,1,0.9981079,2.6240005,0,3.6229992L151.6396027,31.3612995z"/>
	</g>
	<g>
		<path class="st3" d="M184.6063995,43.6035004c1.0039978-1.0018997,2.6221008-1.0009995,3.6221008,0l0,0
			c1.0028992,0.9961014,1.0048981,2.6171989,0.0087891,3.6181984l-2.0292969,2.0214996
			c-0.9979858,1-2.6172028,0.9961014-3.6221008,0l0,0c-0.996994-0.997097-0.996994-2.6231003,0.0019989-3.6201973
			L184.6063995,43.6035004z"/>
		<path class="st2" d="M191.7313995,36.4794998c1-1,2.6162872-1,3.6201935,0l0,0
			c0.9980011,0.9980011,1,2.6201019,0.0039062,3.6230011l-1.8144989,1.8115997c-0.996109,1-2.6230011,0.9960976-3.6201019,0l0,0
			c-1.0077972-1.0019989-0.9971008-2.6240997,0-3.6211014L191.7313995,36.4794998z"/>
		<path class="st2" d="M182.0712891,46.1376991c1.0039062-1.0019989,2.6230011-0.9960976,3.621109,0l0,0
			c0.9980011,0.9980011,0.9989929,2.6201019,0.0018921,3.625l-1.8134003,1.8076019c-0.9971008,1-2.6163025,0.9981003-3.6210938,0
			l0,0c-0.9981079-0.9990005-0.9971008-2.6230011,0-3.6201019L182.0712891,46.1376991z"/>
	</g>
	<g>
		<path class="st2" d="M192.6221008,25.1035004c0.9979858-1.0049,2.621994-0.9990005,3.6229858,0l0,0
			c0.9971008,1.0028992,0.9971008,2.6191998,0,3.6220989l-4.9501953,4.9442997c-0.9980011,1-2.6210938,1-3.6190948,0l0,0
			c-0.9990082-0.9969978-1.0010071-2.6229992-0.0039062-3.6229992L192.6221008,25.1035004z"/>
		<path class="st3" d="M173.3026886,44.4188995c-1.003891,1.0019989-1.0028992,2.625,0.0010071,3.6231003l0,0
			c1.0009918,1.0018997,2.6192017,1.0018997,3.6210938,0l14.722702-14.7245979c1.0039062-1.0020027,1.0039062-2.6240025,0-3.6201019
			l0,0c-1.0009918-1.0030003-2.6181946-1.0049-3.6240997-0.0020008L173.3026886,44.4188995z"/>
		<path class="st1" d="M173.8192902,43.9043007c0.996109-1,2.6172028-0.9980011,3.6221008,0l0,0
			c1,1.0019989,1,2.6221008,0.0039062,3.6240005l-4.9512024,4.9463005c-0.9980011,0.9980965-2.6230011,0.9980965-3.6190948,0l0,0
			c-1.0010071-1.0010033-1.0010071-2.6269035-0.0028992-3.625L173.8192902,43.9043007z"/>
	</g>
</g>
<g>
	<g>
		<path class="st4" d="M52.1963005,44.3311005L52.1963005,44.3311005L52.1963005,44.3311005L52.1963005,44.3311005z"/>
	</g>
	<g>
		<path class="st5" d="M52.0625,45.0966988c-4.6161995,0-9.2769012-2.9413986-9.2769012-9.5136986V23.0723
			c0-6.5702991,4.6607018-9.5108004,9.2769012-9.5108004c4.6176987,0,9.277298,2.9405012,9.277298,9.5108004v12.5107002
			C61.339798,42.1553001,56.6801987,45.0966988,52.0625,45.0966988z M52.0625,16.5352001
			c-2.9608994,0-6.1230011,1.7176991-6.1230011,6.5370998v12.5107002c0,4.8193016,3.1621017,6.5381012,6.1230011,6.5381012
			c2.9599991,0,6.1269989-1.7187996,6.1269989-6.5381012V23.0723C58.1894989,18.2528992,55.0224991,16.5352001,52.0625,16.5352001z"
			/>
	</g>
	<path class="st5" d="M30.1685009,13.5614996c-2.3902016,0-4.5430012,0.9971008-6.1246014,2.7920008V7.0703101
		c0-0.3720703-0.3022003-0.6709003-0.674799-0.6709003h-1.8022003c-0.3726006,0-0.6753006,0.29883-0.6753006,0.6709003v3.2353902
		v1.2323999l0,0L20.8983994,44c0,0.3730011,0.2989006,0.6729012,0.6714001,0.6729012h1.8023014
		c0.3724995,0,0.6737995-0.2999001,0.6737995-0.6729012l0.0019989-4.4706993l-0.0039997-15.5713005
		c0-4.8730011,2.9624004-7.4228001,5.8873005-7.4228001c2.5249004,0,5.2421017,2.0272999,5.2421017,6.4794006L35.1713982,44
		c0,0.3730011,0.2993011,0.6729012,0.6709023,0.6729012h1.8060989c0.3697014,0,0.6719017-0.2999001,0.6719017-0.6729012V23.0146008
		C38.3203011,16.8096008,34.221199,13.5614996,30.1685009,13.5614996z"/>
	<path class="st5" d="M16.8192997,41.4746017l-0.7523994,0.2665977c-0.7837,0.2588005-1.4359999,0.3799019-2.0518007,0.3799019
		c-1.1903992,0-2.2904997-0.4561005-2.2904997-3.7637024V16.9482002h4.5107994c0.3486004,0,0.634201-0.2861004,0.634201-0.6347008
		v-1.702199c0-0.3486004-0.2856007-0.6338005-0.634201-0.6338005l-4.5117989-0.0038996V7.3007798l0,0v-1.05371
		c0-0.3720698-0.3032007-0.5830097-0.6767006-0.4716797L9.2446003,6.3183599
		C8.8720999,6.42871,8.5703001,6.82129,8.5703001,7.1933599l-0.0018997,4.4707398l0.0043993-0.0019999v2.3115005L5.1338,13.9765997
		c-0.3491001,0-0.6338,0.2861004-0.6338,0.6347008V16.3125c0,0.3495998,0.2846999,0.6357002,0.6338,0.6357002h3.4389997V38.357399
		c0,4.2217026,1.9692001,6.7392998,5.2631006,6.7392998c0.8373995,0,1.7407999-0.1532974,2.6118994-0.4452972l0.3715-0.1201019
		c0.3598995-0.0997009,0.652401-0.4707985,0.652401-0.8311005v-1.7481003
		C17.4717007,41.5928001,17.1791992,41.3759995,16.8192997,41.4746017z"/>
	<path class="st5" d="M83.4589996,39.9121017l-0.0009995-25.2695007c0-0.3720999-0.3027039-0.6718998-0.6748047-0.6718998
		h-1.7987976c-0.3721008,0-0.6748047,0.2997999-0.6748047,0.6718998l-0.0019989,20.527298
		c0,4.2919998-3.3036957,6.9512024-6.3593979,6.9512024c-2.3076019,0-4.7705002-1.5635033-4.7705002-5.9463005
		l-0.0018997-21.5321999c0-0.3720999-0.3007965-0.6718998-0.6679993-0.6718998H66.702095
		c-0.371994,0-0.6747971,0.2997999-0.6747971,0.6718998v21.5321999c0,6.1601982,3.9512024,8.9218979,7.8603973,8.9218979
		c2.5371017,0,4.8467026-1.0429993,6.5293045-2.9081993L80.5429993,43.9902l0.0077972,0.1493988h0.0057983
		c0.047905,0.3038025,0.2950058,0.5419998,0.6084061,0.5419998h1.6728973c0.344696,0,0.6230011-0.2821999,0.6230011-0.6268997
		v-4.1425972H83.4589996z"/>
	<path class="st5" d="M120.777298,13.5614996c-2.3896027,0-4.5438995,0.9971008-6.1240005,2.7920008l-0.0009995-9.2831898
		c0-0.3720703-0.3027039-0.6709003-0.6748047-0.6709003h-1.8055954c-0.3711014,0-0.6689987,0.29883-0.6689987,0.6709003v3.2353902
		v1.2323999l0,0L111.5067978,44c0,0.3730011,0.2958984,0.6729012,0.6689987,0.6729012h1.805603
		c0.3710938,0,0.6738968-0.2999001,0.6738968-0.6729012v-4.4706993l-0.0019989-15.5713005
		c0-4.8730011,2.9580002-7.4228001,5.8877029-7.4228001c2.5243988,0,5.2362976,2.0272999,5.2362976,6.4794006V44
		c0,0.3730011,0.3027954,0.6729012,0.6738968,0.6729012h1.8055954c0.3721008,0,0.6679993-0.2999001,0.6679993-0.6729012V23.0146008
		C128.9247894,16.8096008,124.8261948,13.5614996,120.777298,13.5614996z"/>
	<path class="st5" d="M143.4608917,41.4746017l-0.7518921,0.2665977c-0.7842102,0.2588005-1.4423981,0.3799019-2.0508118,0.3799019
		c-1.191391,0-2.2977905-0.4561005-2.2977905-3.7637024V16.9482002h4.5106964c0.3545074,0,0.6376953-0.2861004,0.6376953-0.6347008
		v-1.702199c0-0.3486004-0.2831879-0.6338005-0.6376953-0.6338005l-4.5126953-0.0038996V7.3007798l0,0v-1.05371
		c0-0.3720698-0.2969055-0.5830097-0.6699066-0.4716797l-1.8047028,0.5429697
		c-0.3730927,0.1103501-0.6737823,0.5029302-0.6737823,0.875l-0.0010071,4.4707398l0.0028992-0.0019999v2.3115005
		l-3.4365082,0.0029993c-0.3544922,0-0.6366882,0.2861004-0.6366882,0.6347008V16.3125
		c0,0.3495998,0.282196,0.6357002,0.6366882,0.6357002h3.4365082V38.357399c0,4.2217026,1.969696,6.7392998,5.2626953,6.7392998
		c0.8408051,0,1.7402039-0.1532974,2.6152039-0.4452972l0.3710938-0.1201019
		c0.3565063-0.0997009,0.6513977-0.4707985,0.6513977-0.8311005v-1.7481003
		C144.1122894,41.5928001,143.8173981,41.3759995,143.4608917,41.4746017z"/>
	<path class="st5" d="M105.7782974,14.5957003c0-0.3457003-0.2782974-0.6230001-0.6220016-0.6230001h-1.6728973
		c-0.3134995,0-0.5673981,0.2323999-0.607399,0.5370998l-0.0059052-0.0010004l-0.009697,0.1494007l-0.1279984,1.6885004
		c-2.0830002-2.267601-4.4785004-2.7852011-6.2333984-2.7852011c-3.9541016,0-8.1572037,3.2705011-8.1572037,9.335v12.8652
		c0,6.0644989,4.2031021,9.3349991,8.1572037,9.3349991c1.7216949,0,4.069397-0.5,6.1240005-2.6689987v3.4668007
		c0,3.9218979-2.1445084,6.3614006-5.5937042,6.3614006c-2.2236023,0-3.8906021-1.0009995-4.7802963-2.7666016
		c-0.0088043-0.0195999-0.0205002-0.0391006-0.0361023-0.0625c0-0.0019989-0.0028992-0.0019989-0.0028992-0.0029984
		c-0.1133041-0.1893997-0.3252029-0.3066025-0.5820999-0.2734032l-1.794899,0.25
		c-0.3730011,0.0498009-0.7793045,0.3428001-0.6797028,0.7432022c0.0156021,0.0692978,0.0419998,0.1865005,0.1006012,0.3192978
		c0,0.0010033-0.0009995,0.0039024,0,0.0049019c0.0097961,0.0312004,0.0233994,0.0595016,0.0400009,0.0908012
		c0.0372009,0.0751991,0.0751953,0.1542969,0.1113968,0.2304993c0.1884995,0.3554001,0.4072037,0.7264977,0.4637985,0.8143997
		c0.0069046,0.0107994,0.0108032,0.0205002,0.0108032,0.0205002l0.0018997-0.0018997
		c1.4932022,2.2889977,3.9981003,3.607399,7.1474991,3.607399c5.3153992,0,8.7451019-3.6660004,8.7451019-9.3349991V18.7383003
		L105.777298,18.7402h0.0009995V14.5957003z M102.6230011,34.9931984c0,4.8964005-3.0244064,7.127903-5.8310013,7.127903
		c-2.6377029,0-5.2988052-1.9668007-5.2988052-6.3594017v-12.8652c0-4.3936005,2.6611023-6.3612995,5.2988052-6.3612995
		c2.8065948,0,5.8310013,2.2294006,5.8310013,7.1298008V34.9931984z"/>
</g>
<g>
	<path class="st5" d="M230.5224915,13.5614996c-1.7579041,0-4.1562958,0.5176001-6.2393036,2.7852011l-0.1366882-1.830101
		h-0.0059052c-0.0420074-0.3036995-0.2890015-0.54-0.6092987-0.54h-1.6728973c-0.343811,0-0.6221008,0.2772999-0.6221008,0.625
		v2.0096998h0.0019989l0.003891-0.0009003v37.634697c0,0.3711014,0.3027039,0.6738014,0.6738129,0.6738014h1.8046875
		c0.3731079,0,0.6699066-0.3027,0.6699066-0.6738014L224.3993988,42.4277
		c2.0556946,2.1689987,4.3954926,2.6689987,6.1230927,2.6689987c3.9492035,0,8.152298-3.2705002,8.152298-9.3349991v-12.8652
		C238.6747894,16.8320007,234.4716949,13.5614996,230.5224915,13.5614996z M235.5233917,35.7616997
		c0,4.392601-2.6620941,6.3594017-5.2978058,6.3594017c-2.8075867,0-5.8261871-2.2315025-5.8261871-7.127903V23.6650009
		c0-4.9004002,3.0186005-7.1298008,5.8261871-7.1298008c2.6357117,0,5.2978058,1.9676991,5.2978058,6.3612995V35.7616997z"/>
	<path class="st5" d="M209.6054993,27.5331993l-0.1953125-0.0977001c-3.0146942-1.5380001-5.511795-3.0741997-5.511795-6.3104992
		c0-3.3838005,2.4629059-4.5897999,4.7647095-4.5897999c2.2489929,0,4.6493988,1.1289005,4.6493988,4.294899v1.012701h-0.0019989
		v0.2558002c0,0.3740997,0.3027954,0.6280003,0.6748962,0.5713005l1.8085022-0.2822018
		c0.3710938-0.0576,0.6748962-0.4032993,0.6748962-0.7763996v-0.0966988h0.0009003v-0.6845016
		c0-4.3466988-3.1631012-7.2685995-7.8603058-7.2685995c-3.9160004,0-7.8622894,2.3399-7.8622894,7.5635004
		c0,5.1054993,4.0702972,7.2793007,7.4051971,9.0653992c3.1221008,1.6465015,5.8096008,3.0674019,5.8096008,6.5126991
		c0,3.2901001-2.125,5.4180031-5.4140015,5.4180031c-3.3057098,0-5.2929993-2.1582031-5.3545074-5.7812996
		c0,0-0.0048981-0.1601028-0.0048981-0.1650009V36.1875c-0.0292969-0.3466988-0.3134918-0.6171989-0.664093-0.6171989h-1.8047028
		c-0.3720093,0-0.6748047,0.2997971-0.6748047,0.6737976c0,0-0.0018921,0.1827011-0.0009918,0.2413025v0.0125999h0.0009918
		c0.0791016,5.0615997,3.4208984,8.5986977,8.5644989,8.5986977c5.1670074,0,8.5097046-3.294899,8.5097046-8.3936005
		C217.1190948,31.4111004,213.1269989,29.3525009,209.6054993,27.5331993z"/>
	<path class="st5" d="M278.6152039,31.2880993c3.0596008,0,4.6161804-1.5536995,4.6161804-4.6142998v-3.4834003
		c0-6.6512985-4.6043701-9.6288996-9.1611023-9.6288996c-4.5018921,0-9.0429993,2.9776011-9.0429993,9.6288996v12.4532013
		c0,6.530201,4.4804993,9.4530983,8.9219055,9.4530983c4.4717102,0,8.9833984-2.9228973,8.9833984-9.4530983V35.2598h0.0039062
		v-0.2569008c0-0.3700981-0.3027039-0.6727982-0.6698914-0.6727982h-1.8096008c-0.3729858,0-0.6766968,0.3027-0.6766968,0.6727982
		V35.2598h0.0028992v0.3838005c0,3.9344978-2.2891235,6.4775009-5.8340149,6.4775009
		c-2.7850952,0-5.7645874-1.7022018-5.7645874-6.4775009v-4.3555012H278.6152039z M268.1846008,23.1903992
		c0-4.9071999,3.0664062-6.6551991,5.9462891-6.6551991c3.609314,0,5.9491882,2.6142006,5.9491882,6.6551991v3.4834003
		c0,1.4346008-0.328064,1.6407013-1.5243835,1.6407013h-10.3710938V23.1903992z"/>
	<path class="st5" d="M252.4600067,13.5614996c-2.3907166,0-4.5429993,0.9971008-6.1309204,2.7920008V7.0703101
		c0-0.3720703-0.3017883-0.6709003-0.6688995-0.6709003h-1.8046875c-0.3731079,0-0.6758118,0.29883-0.6758118,0.6709003v3.2353902
		v1.2323999l0,0L243.1845856,44c0,0.3730011,0.3008118,0.6729012,0.6738129,0.6729012h1.8046875
		c0.3740082,0,0.6689148-0.2999001,0.6689148-0.6729012l0.0009918-4.4706993l-0.0039062-15.5713005
		c0-4.8730011,2.9658051-7.4228001,5.8945007-7.4228001c2.5176086,0,5.2382965,2.0272999,5.2382965,6.4794006L257.4599915,44
		c0,0.3730011,0.3016968,0.6729012,0.6737976,0.6729012h1.7998047c0.3729858,0,0.6748047-0.2999001,0.6748047-0.6729012V23.0146008
		C260.6083984,16.8096008,256.5097961,13.5614996,252.4600067,13.5614996z"/>
	<path class="st5" d="M299.3964844,14.4364996c-0.2539062-0.3212996-1.375-0.875-3.1806946-0.875
		c-2.1845093,0-4.1592102,0.9776001-5.5400085,2.6856012L290.5625,14.6640997l-0.0088196-0.1475l-0.0048828,0.0020008
		c-0.0419922-0.3038006-0.2948914-0.5411005-0.6083984-0.5411005h-1.671814c-0.3457031,0-0.6231079,0.2784004-0.6231079,0.6260004
		v0.1201h-0.0018921l0.0018921,29.2842007c0,0.3710976,0.3027039,0.6737976,0.6748047,0.6737976h1.8057251
		c0.3661804,0,0.6688843-0.3027,0.6688843-0.6737976V23.6650009c0-3.4629002,1.6034851-6.9541016,5.1835938-6.9541016
		c0.5166016,0,1.0674133,0.0820999,1.6465149,0.2354012c1.101593,0.3036995,1.4755859,0.4258003,1.7001953,0.2821999
		c0.1503906-0.0957012,0.2441101-0.267601,0.2705078-0.4482002
		C299.7402039,15.6709003,299.8017883,14.9629002,299.3964844,14.4364996z"/>
	<path class="st5" d="M314.8847961,31.2880993c3.0653992,0,4.6152039-1.5536995,4.6152039-4.6142998v-3.4834003
		c0-6.6512985-4.6045227-9.6288996-9.1602173-9.6288996c-4.5018921,0-9.0438843,2.9776011-9.0438843,9.6288996v12.4532013
		c0,6.530201,4.4882812,9.4530983,8.9296875,9.4530983c4.4648132,0,8.9756165-2.9228973,8.9756165-9.4530983V35.2598h0.0038757
		v-0.2569008c0-0.3700981-0.2958984-0.6727982-0.6698914-0.6727982h-1.8085938c-0.3731079,0-0.6767883,0.3027-0.6767883,0.6727982
		V35.2598h0.0028992v0.3838005c0,3.9344978-2.2890015,6.4775009-5.8271179,6.4775009
		c-2.7929993,0-5.7724915-1.7022018-5.7724915-6.4775009v-4.3555012H314.8847961z M304.4530945,23.1903992
		c0-4.9071999,3.0722961-6.6551991,5.9472961-6.6551991c3.6094055,0,5.9482117,2.6142006,5.9482117,6.6551991v3.4834003
		c0,1.4346008-0.3271179,1.6407013-1.5244141,1.6407013h-10.3710938V23.1903992z"/>
</g>
</svg>
